HIERARCHY
ROOT Hips
{
	OFFSET 8.91173 92.52490 -21.95620
	CHANNELS 6 Xposition Yposition Zposition Zrotation Xrotation Yrotation
	JOINT Spine
	{
		OFFSET 0.00000 14.09320 -1.51142
		CHANNELS 3 Zrotation Xrotation Yrotation
		JOINT Spine1
		{
			OFFSET 0.00000 8.69660 0.00000
			CHANNELS 3 Zrotation Xrotation Yrotation
			JOINT Spine2
			{
				OFFSET 0.00000 8.69660 0.00000
				CHANNELS 3 Zrotation Xrotation Yrotation
				JOINT Spine3
				{
					OFFSET 0.00000 8.69660 0.00000
					CHANNELS 3 Zrotation Xrotation Yrotation
					JOINT Neck
					{
						OFFSET 0.00000 11.18130 1.11813
						CHANNELS 3 Zrotation Xrotation Yrotation
						JOINT Neck1
						{
							OFFSET 0.00000 5.70631 0.00000
							CHANNELS 3 Zrotation Xrotation Yrotation
							JOINT Head
							{
								OFFSET 0.00000 5.70631 0.00000
								CHANNELS 3 Zrotation Xrotation Yrotation
								End site
								{
									OFFSET 0.00000 9.71257 0.00000
								}
							}
						}
					}
					JOINT RightShoulder
					{
						OFFSET 0.00000 7.98668 5.19711
						CHANNELS 3 Zrotation Xrotation Yrotation
						JOINT RightArm
						{
							OFFSET 0.00000 18.31580 0.00000
							CHANNELS 3 Zrotation Xrotation Yrotation
							JOINT RightForeArm
							{
								OFFSET 0.00000 28.87420 0.00000
								CHANNELS 3 Zrotation Xrotation Yrotation
								JOINT RightHand
								{
									OFFSET 0.00000 23.87720 0.00000
									CHANNELS 3 Zrotation Xrotation Yrotation
									JOINT RightHandThumb1
									{
										OFFSET -2.41094 4.67063 3.47303
										CHANNELS 3 Zrotation Xrotation Yrotation
										JOINT RightHandThumb2
										{
											OFFSET 0.00000 3.95207 0.00000
											CHANNELS 3 Zrotation Xrotation Yrotation
											JOINT RightHandThumb3
											{
												OFFSET 0.00000 2.15568 0.00000
												CHANNELS 3 Zrotation Xrotation Yrotation
												End site
												{
													OFFSET 0.00000 1.91616 0.00000
												}
											}
										}
									}
									JOINT RightHandIndex1
									{
										OFFSET 0.00000 12.45500 2.51496
										CHANNELS 3 Zrotation Xrotation Yrotation
										JOINT RightHandIndex2
										{
											OFFSET 0.00000 4.79039 0.00000
											CHANNELS 3 Zrotation Xrotation Yrotation
											JOINT RightHandIndex3
											{
												OFFSET 0.00000 2.63472 0.00000
												CHANNELS 3 Zrotation Xrotation Yrotation
												End site
												{
													OFFSET 0.00000 1.91616 0.00000
												}
											}
										}
									}
									JOINT RightHandMiddle1
									{
										OFFSET 0.00000 12.45500 -0.07984
										CHANNELS 3 Zrotation Xrotation Yrotation
										JOINT RightHandMiddle2
										{
											OFFSET 0.00000 5.38919 0.00000
											CHANNELS 3 Zrotation Xrotation Yrotation
											JOINT RightHandMiddle3
											{
												OFFSET 0.00000 3.11376 0.00000
												CHANNELS 3 Zrotation Xrotation Yrotation
												End site
												{
													OFFSET 0.00000 2.03592 0.00000
												}
											}
										}
									}
									JOINT RightHandRing1
									{
										OFFSET 0.00000 11.07780 -2.67464
										CHANNELS 3 Zrotation Xrotation Yrotation
										JOINT RightHandRing2
										{
											OFFSET 0.00000 4.91015 0.00000
											CHANNELS 3 Zrotation Xrotation Yrotation
											JOINT RightHandRing3
											{
												OFFSET 0.00000 3.11376 0.00000
												CHANNELS 3 Zrotation Xrotation Yrotation
												End site
												{
													OFFSET 0.00000 2.03592 0.00000
												}
											}
										}
									}
									JOINT RightHandPinky1
									{
										OFFSET 0.00000 9.70055 -5.26943
										CHANNELS 3 Zrotation Xrotation Yrotation
										JOINT RightHandPinky2
										{
											OFFSET 0.00000 3.95207 0.00000
											CHANNELS 3 Zrotation Xrotation Yrotation
											JOINT RightHandPinky3
											{
												OFFSET 0.00000 2.15568 0.00000
												CHANNELS 3 Zrotation Xrotation Yrotation
												End site
												{
													OFFSET 0.00000 1.91616 0.00000
												}
											}
										}
									}
								}
							}
						}
					}
					JOINT LeftShoulder
					{
						OFFSET 0.00000 7.98668 5.19711
						CHANNELS 3 Zrotation Xrotation Yrotation
						JOINT LeftArm
						{
							OFFSET 0.00000 18.31580 0.00000
							CHANNELS 3 Zrotation Xrotation Yrotation
							JOINT LeftForeArm
							{
								OFFSET 0.00000 28.87420 0.00000
								CHANNELS 3 Zrotation Xrotation Yrotation
								JOINT LeftHand
								{
									OFFSET 0.00000 23.87720 0.00000
									CHANNELS 3 Zrotation Xrotation Yrotation
									JOINT LeftHandThumb1
									{
										OFFSET 2.41094 4.67063 3.47303
										CHANNELS 3 Zrotation Xrotation Yrotation
										JOINT LeftHandThumb2
										{
											OFFSET 0.00000 3.95207 0.00000
											CHANNELS 3 Zrotation Xrotation Yrotation
											JOINT LeftHandThumb3
											{
												OFFSET 0.00000 2.15568 0.00000
												CHANNELS 3 Zrotation Xrotation Yrotation
												End site
												{
													OFFSET 0.00000 1.60000 0.00000
												}
											}
										}
									}
									JOINT LeftHandIndex1
									{
										OFFSET 0.00000 12.45500 2.51496
										CHANNELS 3 Zrotation Xrotation Yrotation
										JOINT LeftHandIndex2
										{
											OFFSET 0.00000 4.79039 0.00000
											CHANNELS 3 Zrotation Xrotation Yrotation
											JOINT LeftHandIndex3
											{
												OFFSET 0.00000 2.63472 0.00000
												CHANNELS 3 Zrotation Xrotation Yrotation
												End site
												{
													OFFSET 0.00000 1.91616 0.00000
												}
											}
										}
									}
									JOINT LeftHandMiddle1
									{
										OFFSET 0.00000 12.45500 -0.07984
										CHANNELS 3 Zrotation Xrotation Yrotation
										JOINT LeftHandMiddle2
										{
											OFFSET 0.00000 5.38919 0.00000
											CHANNELS 3 Zrotation Xrotation Yrotation
											JOINT LeftHandMiddle3
											{
												OFFSET 0.00000 3.11376 0.00000
												CHANNELS 3 Zrotation Xrotation Yrotation
												End site
												{
													OFFSET 0.00000 2.03592 0.00000
												}
											}
										}
									}
									JOINT LeftHandRing1
									{
										OFFSET 0.00000 11.07780 -2.67464
										CHANNELS 3 Zrotation Xrotation Yrotation
										JOINT LeftHandRing2
										{
											OFFSET 0.00000 4.91015 0.00000
											CHANNELS 3 Zrotation Xrotation Yrotation
											JOINT LeftHandRing3
											{
												OFFSET 0.00000 3.11376 0.00000
												CHANNELS 3 Zrotation Xrotation Yrotation
												End site
												{
													OFFSET 0.00000 2.03592 0.00000
												}
											}
										}
									}
									JOINT LeftHandPinky1
									{
										OFFSET 0.00000 9.70055 -5.26943
										CHANNELS 3 Zrotation Xrotation Yrotation
										JOINT LeftHandPinky2
										{
											OFFSET 0.00000 3.95207 0.00000
											CHANNELS 3 Zrotation Xrotation Yrotation
											JOINT LeftHandPinky3
											{
												OFFSET 0.00000 2.15568 0.00000
												CHANNELS 3 Zrotation Xrotation Yrotation
												End site
												{
													OFFSET 0.00000 1.91616 0.00000
												}
											}
										}
									}
								}
							}
						}
					}
				}
			}
		}
	}
	JOINT RightUpLeg
	{
		OFFSET -10.06560 0.00000 0.00000
		CHANNELS 3 Zrotation Xrotation Yrotation
		JOINT RightLeg
		{
			OFFSET 0.00000 -42.98740 0.00000
			CHANNELS 3 Zrotation Xrotation Yrotation
			JOINT RightFoot
			{
				OFFSET 0.00000 -44.62500 0.00000
				CHANNELS 3 Zrotation Xrotation Yrotation
				JOINT RightForeFoot
				{
					OFFSET 0.00000 -3.74821 0.00000
					CHANNELS 3 Zrotation Xrotation Yrotation
					JOINT RightToeBase
					{
						OFFSET 0.00000 0.00000 14.67920
						CHANNELS 3 Zrotation Xrotation Yrotation
						End site
						{
							OFFSET 0.00000 0.00000 10.36040
						}
					}
				}
			}
		}
	}
	JOINT LeftUpLeg
	{
		OFFSET 10.06560 0.00000 0.00000
		CHANNELS 3 Zrotation Xrotation Yrotation
		JOINT LeftLeg
		{
			OFFSET 0.00000 -42.98740 0.00000
			CHANNELS 3 Zrotation Xrotation Yrotation
			JOINT LeftFoot
			{
				OFFSET 0.00000 -44.62500 0.00000
				CHANNELS 3 Zrotation Xrotation Yrotation
				JOINT LeftForeFoot
				{
					OFFSET 0.00000 -3.74821 0.00000
					CHANNELS 3 Zrotation Xrotation Yrotation
					JOINT LeftToeBase
					{
						OFFSET 0.00000 0.00000 14.67920
						CHANNELS 3 Zrotation Xrotation Yrotation
						End site
						{
							OFFSET 0.00000 0.00000 10.67280
						}
					}
				}
			}
		}
	}
}
MOTION
Frames: 4
Frame Time: 0.166666667
15.7099 88.4755 -77.0501 -9.2061 0.220309 -177.804 -8.19996 0.584265 -0.647346 -1.30097 4.10981 0.500394 -1.95143 -1.33713 -1.58408 0.918313 1.75342 -1.33108 2.30391 13.5986 -2.61385 0.981076 3.39819 -7.89023 1.05335 -10.4226 -0.670725 90 0 0 78.591 5.38073 -27.6884 0.000107457 70.3832 48.3507 -3.85348 -5.95112 1.13373e-06 5.63743 28.1965 -2.67036 3.06904e-32 -3.97569e-16 4.42296e-15 9.31058e-32 -1.19271e-15 4.47266e-15 -67.8412 -5.56597e-15 -1.27222e-14 -6.36111e-15 3.97569e-15 3.18055e-15 -5.56597e-15 -7.95139e-16 -0.0 -63.9804 -1.59028e-15 -9.54166e-15 4.77083e-15 7.95139e-16 -0.0 4.41391e-31 3.97569e-15 -6.36111e-15 -49.2 -3.18055e-15 -0.0 -8.82781e-32 -1.59028e-15 -3.18055e-15 -3.18055e-15 0.0 -0.0 -36.2892 -6.36111e-15 -3.18055e-15 3.18055e-15 -9.54166e-15 -6.36111e-15 -3.18055e-15 3.18055e-15 -3.18055e-15 -90 0 0 -75.43 4.90963 47.3424 9.16716e-07 75.1987 -32.2207 -9.72697 -5.39854 1.21455e-06 -39.5091 1.81505 1.4961 -1.59028e-15 0.0 -6.36111e-15 -4.41391e-32 -7.95139e-16 -3.18055e-15 22.6981 3.18055e-15 -4.77083e-15 1.59028e-15 6.36111e-15 1.59028e-15 1.59028e-15 6.36111e-15 1.59028e-15 26.0995 3.18055e-15 -6.36111e-15 4.77083e-15 -6.36111e-15 -2.38542e-15 -7.94503e-31 -1.90833e-14 -2.38542e-15 -31.0905 3.18055e-15 1.27222e-14 -4.77083e-15 3.18055e-15 1.27222e-14 -4.77083e-15 -1.59028e-15 -0.0 -84.5059 -9.54166e-15 1.59028e-14 1.27222e-14 6.36111e-15 1.27222e-14 9.54166e-15 -3.18055e-15 6.36111e-15 -11.9541 -22.0497 -4.0192 -1.83866e-16 29.901 -2.29308e-16 2.86428 -17.7743 8.23227 0.0 0.0 -7.95139e-16 3.97569e-16 7.29294 -0.0 -11.9021 -7.17938 9.0291 4.23488e-16 21.9622 -8.57357e-15 5.37252 -18.5544 4.19911 0.0 0.0 -3.18055e-15 -1.31559e-16 1.21085 -3.18127e-15
15.6247 88.6332 -76.9724 -9.30882 -0.0766659 -177.604 -8.1779 0.854091 -0.738035 -1.15935 4.09012 0.432216 -1.77679 -1.29459 -2.35937 1.2928 1.75426 -1.48015 2.8909 13.5021 -3.28338 1.41719 3.52677 -8.05334 1.63031 -10.1005 -0.753007 90 0 0 79.8035 5.52785 -22.7371 2.07253e-05 76.3215 48.144 -3.04822 3.19852 -2.15321e-06 2.00624 26.4049 -0.892487 -1.10348e-31 -1.59028e-15 -3.97569e-15 -0.0 -1.59028e-15 -0.0 -62.7943 7.15625e-15 -7.95139e-15 -3.18055e-15 9.54166e-15 1.59028e-15 -3.18055e-15 3.97569e-15 -1.59028e-15 -60.5052 4.77083e-15 -9.54166e-15 6.36111e-15 1.59028e-15 -1.59028e-15 2.20695e-31 -7.95139e-15 1.59028e-15 -43.5828 1.59028e-15 -9.54166e-15 -6.36111e-15 -1.59028e-15 1.59028e-15 3.18055e-15 -1.59028e-15 1.59028e-15 -12.456 1.59028e-15 -3.97569e-15 3.18055e-15 1.59028e-15 -7.95139e-16 2.20695e-31 3.18055e-15 -3.97569e-15 -90 0 0 -75.7607 4.74 46.0969 3.75143e-06 74.2407 -44.4723 -7.57495 -1.74985 2.75628e-06 -36.7655 12.6937 9.32361 -6.36111e-15 1.59028e-15 6.36111e-15 -3.18055e-15 0.0 3.18055e-15 30.4704 -3.18055e-15 -1.98785e-15 7.95139e-16 -1.27222e-14 -1.59028e-15 1.98785e-15 3.18055e-15 2.78299e-15 31.2197 -6.36111e-15 -3.97569e-15 7.95139e-16 -3.18055e-15 4.37326e-15 -1.59028e-15 3.18055e-15 1.59028e-15 -13.7451 -6.36111e-15 -0.0 -9.54166e-15 3.18055e-15 -0.0 -1.05934e-30 6.36111e-15 9.54166e-15 -65.871 -1.09332e-14 3.18055e-15 -2.5842e-15 1.78906e-15 -0.0 3.97569e-16 1.59028e-15 -3.18055e-15 -12.1053 -21.8439 -3.73596 -4.48587e-16 29.7038 -1.602e-15 3.88523 -24.7352 6.68245 -1.98785e-16 0.0 -1.59028e-15 -1.86857e-16 0.859441 -7.95228e-16 -12.197 -6.85174 8.76901 -1.21705e-15 20.6841 1.01991e-14 5.45978 -17.9213 4.15314 -4.96962e-16 1.19271e-15 -0.0 -1.57797e-16 2.10332 1.59135e-15
15.7463 88.6497 -77.46 -8.84979 0.171627 -177.993 -7.55804 0.718858 -0.708208 -1.06792 4.08126 0.397271 -1.64486 -1.25472 -2.17391 1.37935 1.90919 -1.43289 2.99896 13.8136 -3.35416 1.28853 3.24109 -8.53041 1.51626 -10.5257 -0.769232 90 0 0 77.6408 8.66272 -20.7494 -8.03965e-06 72.1866 48.8658 -4.34854 2.58926 4.78526e-08 0.156252 28.4748 -0.0744962 -2.20695e-32 -1.59028e-15 -7.95139e-16 -2.20695e-32 -1.59028e-15 -7.95139e-16 -61.4083 5.56597e-15 -1.74931e-14 1.59028e-15 4.77083e-15 -1.59028e-15 -1.59028e-15 -1.59028e-15 1.59028e-15 -58.9925 5.56597e-15 -1.90833e-14 3.18055e-15 -6.36111e-15 -0.0 6.36111e-15 3.97569e-15 -3.18055e-15 -42.0311 -4.77083e-15 -9.54166e-15 -6.36111e-15 -7.95139e-15 3.18055e-15 -9.54166e-15 -1.27222e-14 1.59028e-15 -13.539 -1.59028e-15 -0.0 3.18055e-15 -6.36111e-15 7.95139e-16 3.18055e-15 0.0 -1.59028e-15 -90 0 0 -75.4172 5.09583 45.9792 -5.31032e-07 74.2955 -41.8523 -5.12324 0.113243 -1.21014e-09 -35.2105 13.555 9.3917 0.0 0.0 -3.18055e-15 -3.18055e-15 0.0 9.54166e-15 26.2839 0.0 -2.98177e-15 -1.78906e-15 3.18055e-15 1.59028e-15 -2.98177e-15 9.54166e-15 2.5345e-15 24.6066 0.0 -6.95746e-16 -1.39149e-15 -3.18055e-15 1.59028e-15 -1.09332e-15 3.18055e-15 2.5842e-15 -16.5058 -3.18055e-15 3.18055e-15 1.76556e-31 3.18055e-15 -3.18055e-15 -0.0 0.0 3.18055e-15 -62.0984 -1.98785e-15 1.27222e-14 1.19271e-15 -1.98785e-15 -1.59028e-14 -1.98785e-16 0.0 -9.54166e-15 -10.89 -21.1697 -1.64798 -1.17861e-15 29.1444 -3.2433e-15 3.0134 -23.6393 5.22359 -0.0 -3.18055e-15 -0.0 2.76671e-17 0.996714 -1.59052e-15 -11.6303 -6.59807 8.83821 -7.75953e-16 21.1596 -1.70525e-15 5.41584 -18.3028 4.55577 3.97569e-16 0.0 -0.0 1.98785e-16 1.6113 -0.0
16.1567 88.5857 -78.231 -8.41735 0.00154638 -177.895 -7.08519 0.29354 -0.664567 -1.09629 4.05336 0.401384 -1.67194 -1.36882 -2.10648 1.28069 1.87043 -1.41323 2.75002 14.0415 -2.71445 1.11248 2.6053 -7.32677 1.40319 -11.5246 -0.666359 90 0 0 77.8984 6.14801 -22.3525 5.86211e-06 72.4329 50.3105 -4.63937 2.11057 -7.22461e-08 2.24662 26.2503 -0.994075 -1.59028e-15 0.0 -1.59028e-15 -3.18055e-15 0.0 -2.38542e-15 -65.6977 2.38542e-15 -0.0 -3.18055e-15 -3.97569e-16 -0.0 -4.77083e-15 1.98785e-15 3.18055e-15 -62.9383 3.97569e-16 3.18055e-15 4.77083e-15 -4.37326e-15 -0.0 1.59028e-15 -7.95139e-15 3.18055e-15 -45.5186 -1.59028e-15 3.18055e-15 1.76556e-31 3.18055e-15 -3.18055e-15 3.18055e-15 7.95139e-15 -1.59028e-15 -16.7648 3.18055e-15 3.18055e-15 3.18055e-15 3.18055e-15 9.54166e-15 -3.18055e-15 0.0 1.59028e-15 -90 0 0 -75.3224 4.13693 46.1888 9.27552e-07 74.2512 -41.5901 -4.74682 0.187117 2.24295e-09 -34.9814 13.274 9.12725 -3.18055e-15 4.77083e-15 3.18055e-15 6.36111e-15 9.54166e-15 3.18055e-15 24.951 -3.18055e-15 1.93815e-15 -1.44119e-15 6.36111e-15 -9.93923e-16 -1.73937e-15 9.54166e-15 -2.88238e-15 22.6842 -3.18055e-15 -9.93923e-17 -1.98785e-15 0.0 2.68359e-15 -5.96354e-16 -3.18055e-15 1.2921e-15 -16.7459 -9.54166e-15 -1.27222e-14 6.36111e-15 6.36111e-15 6.36111e-15 6.36111e-15 -3.18055e-15 -3.18055e-15 -60.6762 6.36111e-15 -1.27222e-14 3.97569e-16 0.0 -3.18055e-15 -0.0 -2.78299e-15 -0.0 -10.1581 -21.1031 -1.70241 3.88539e-16 29.1408 3.64147e-15 1.58404 -18.6089 4.93809 0.0 0.0 -1.59028e-15 2.92669e-16 6.99473 -2.4033e-15 -10.8765 -6.74818 8.71796 4.93595e-17 22.099 -1.71637e-15 5.19783 -19.0804 4.57572 3.97569e-16 -3.97569e-16 -1.59028e-15 3.75933e-17 1.35419 -1.59072e-15
